<svg xmlns="http://www.w3.org/2000/svg" viewBox="0 0 360 240" width="360" height="240">
  <defs>
    <linearGradient id="bg" x1="0%" y1="0%" x2="100%" y2="100%">
      <stop offset="0%" stop-color="#0f2a4a"/>
      <stop offset="100%" stop-color="#080f1e"/>
    </linearGradient>
    <linearGradient id="fill" x1="0" y1="0" x2="0" y2="1">
      <stop offset="0%" stop-color="#3b82f6" stop-opacity="0.35"/>
      <stop offset="100%" stop-color="#3b82f6" stop-opacity="0"/>
    </linearGradient>
  </defs>
  <rect width="360" height="240" fill="url(#bg)"/>
  <line x1="0" y1="80" x2="360" y2="80" stroke="#1e3a5f" stroke-width="0.5" stroke-dasharray="4,6"/>
  <line x1="0" y1="150" x2="360" y2="150" stroke="#1e3a5f" stroke-width="0.5" stroke-dasharray="4,6"/>
  <polygon points="0,220 50,195 100,175 150,155 200,125 250,105 300,75 360,50 360,240 0,240" fill="url(#fill)"/>
  <polyline points="0,220 50,195 100,175 150,155 200,125 250,105 300,75 360,50" fill="none" stroke="#3b82f6" stroke-width="2.5" stroke-linecap="round" stroke-linejoin="round"/>
  <circle cx="200" cy="125" r="3.5" fill="#3b82f6"/>
  <circle cx="360" cy="50" r="5" fill="#60a5fa"/>
  <rect x="16" y="16" width="76" height="26" rx="5" fill="#1e3a5f"/>
  <text x="54" y="33" font-family="monospace" font-size="11" font-weight="bold" fill="#93c5fd" text-anchor="middle">국내주식</text>
  <rect x="294" y="190" width="8" height="28" fill="#ef4444" rx="1" opacity="0.85"/>
  <rect x="308" y="200" width="8" height="18" fill="#3b82f6" rx="1" opacity="0.85"/>
  <rect x="322" y="183" width="8" height="35" fill="#ef4444" rx="1" opacity="0.85"/>
  <rect x="336" y="195" width="8" height="23" fill="#ef4444" rx="1" opacity="0.85"/>
  <rect x="350" y="178" width="8" height="40" fill="#ef4444" rx="1" opacity="0.85"/>
</svg>
