<svg xmlns="http://www.w3.org/2000/svg" viewBox="0 0 360 240" width="360" height="240">
  <defs>
    <linearGradient id="bg" x1="0%" y1="0%" x2="100%" y2="100%">
      <stop offset="0%" stop-color="#052e16"/>
      <stop offset="100%" stop-color="#030f09"/>
    </linearGradient>
    <linearGradient id="fill" x1="0" y1="0" x2="0" y2="1">
      <stop offset="0%" stop-color="#22c55e" stop-opacity="0.35"/>
      <stop offset="100%" stop-color="#22c55e" stop-opacity="0"/>
    </linearGradient>
  </defs>
  <rect width="360" height="240" fill="url(#bg)"/>
  <line x1="0" y1="80" x2="360" y2="80" stroke="#14532d" stroke-width="0.5" stroke-dasharray="4,6"/>
  <line x1="0" y1="155" x2="360" y2="155" stroke="#14532d" stroke-width="0.5" stroke-dasharray="4,6"/>
  <rect x="30" y="170" width="28" height="55" fill="#22c55e" rx="2" opacity="0.7"/>
  <rect x="70" y="150" width="28" height="75" fill="#22c55e" rx="2" opacity="0.7"/>
  <rect x="110" y="130" width="28" height="95" fill="#22c55e" rx="2" opacity="0.8"/>
  <rect x="150" y="115" width="28" height="110" fill="#22c55e" rx="2" opacity="0.8"/>
  <rect x="190" y="140" width="28" height="85" fill="#16a34a" rx="2" opacity="0.7"/>
  <rect x="230" y="105" width="28" height="120" fill="#22c55e" rx="2" opacity="0.9"/>
  <polygon points="0,210 60,185 120,160 180,135 240,145 300,110 360,80 360,240 0,240" fill="url(#fill)"/>
  <polyline points="0,210 60,185 120,160 180,135 240,145 300,110 360,80" fill="none" stroke="#22c55e" stroke-width="2.5" stroke-linecap="round" stroke-linejoin="round"/>
  <rect x="16" y="16" width="48" height="26" rx="5" fill="#052e16"/>
  <text x="40" y="33" font-family="monospace" font-size="11" font-weight="bold" fill="#86efac" text-anchor="middle">경제</text>
</svg>
