<svg xmlns="http://www.w3.org/2000/svg" viewBox="0 0 360 240" width="360" height="240">
  <defs>
    <linearGradient id="bg" x1="0%" y1="0%" x2="100%" y2="100%">
      <stop offset="0%" stop-color="#1e1040"/>
      <stop offset="100%" stop-color="#0a0818"/>
    </linearGradient>
    <linearGradient id="fill" x1="0" y1="0" x2="0" y2="1">
      <stop offset="0%" stop-color="#8b5cf6" stop-opacity="0.35"/>
      <stop offset="100%" stop-color="#8b5cf6" stop-opacity="0"/>
    </linearGradient>
  </defs>
  <rect width="360" height="240" fill="url(#bg)"/>
  <circle cx="280" cy="120" r="80" fill="none" stroke="#2e1065" stroke-width="0.5"/>
  <circle cx="280" cy="120" r="55" fill="none" stroke="#2e1065" stroke-width="0.5"/>
  <circle cx="280" cy="120" r="30" fill="none" stroke="#2e1065" stroke-width="0.5"/>
  <line x1="0" y1="90" x2="360" y2="90" stroke="#1e1040" stroke-width="0.5" stroke-dasharray="4,6"/>
  <line x1="0" y1="165" x2="360" y2="165" stroke="#1e1040" stroke-width="0.5" stroke-dasharray="4,6"/>
  <polygon points="0,230 60,200 120,215 180,175 240,150 300,120 360,90 360,240 0,240" fill="url(#fill)"/>
  <polyline points="0,230 60,200 120,215 180,175 240,150 300,120 360,90" fill="none" stroke="#8b5cf6" stroke-width="2.5" stroke-linecap="round" stroke-linejoin="round"/>
  <circle cx="180" cy="175" r="3.5" fill="#8b5cf6"/>
  <circle cx="360" cy="90" r="5" fill="#a78bfa"/>
  <rect x="16" y="16" width="76" height="26" rx="5" fill="#1e1040"/>
  <text x="54" y="33" font-family="monospace" font-size="11" font-weight="bold" fill="#c4b5fd" text-anchor="middle">해외주식</text>
</svg>
