<svg xmlns="http://www.w3.org/2000/svg" viewBox="0 0 360 240" width="360" height="240">
  <defs>
    <linearGradient id="bg" x1="0%" y1="0%" x2="100%" y2="100%">
      <stop offset="0%" stop-color="#431407"/>
      <stop offset="100%" stop-color="#1a0804"/>
    </linearGradient>
  </defs>
  <rect width="360" height="240" fill="url(#bg)"/>
  <!-- Building 1 (tall) -->
  <rect x="40" y="90" width="50" height="150" fill="#c2410c" opacity="0.6" rx="2"/>
  <rect x="45" y="98" width="10" height="12" fill="#fed7aa" opacity="0.5" rx="1"/>
  <rect x="60" y="98" width="10" height="12" fill="#fed7aa" opacity="0.5" rx="1"/>
  <rect x="75" y="98" width="10" height="12" fill="#fed7aa" opacity="0.5" rx="1"/>
  <rect x="45" y="118" width="10" height="12" fill="#fed7aa" opacity="0.5" rx="1"/>
  <rect x="60" y="118" width="10" height="12" fill="#fde68a" opacity="0.7" rx="1"/>
  <rect x="75" y="118" width="10" height="12" fill="#fed7aa" opacity="0.5" rx="1"/>
  <!-- Building 2 (medium) -->
  <rect x="110" y="130" width="40" height="110" fill="#ea580c" opacity="0.5" rx="2"/>
  <rect x="115" y="138" width="10" height="10" fill="#fde68a" opacity="0.6" rx="1"/>
  <rect x="130" y="138" width="10" height="10" fill="#fed7aa" opacity="0.5" rx="1"/>
  <!-- Building 3 (short) -->
  <rect x="170" y="155" width="35" height="85" fill="#c2410c" opacity="0.45" rx="2"/>
  <!-- Building 4 (tallest) -->
  <rect x="225" y="60" width="55" height="180" fill="#ea580c" opacity="0.7" rx="2"/>
  <polygon points="225,60 252,30 280,60" fill="#f97316" opacity="0.8"/>
  <rect x="233" y="70" width="12" height="14" fill="#fde68a" opacity="0.7" rx="1"/>
  <rect x="252" y="70" width="12" height="14" fill="#fed7aa" opacity="0.6" rx="1"/>
  <rect x="233" y="92" width="12" height="14" fill="#fed7aa" opacity="0.5" rx="1"/>
  <rect x="252" y="92" width="12" height="14" fill="#fde68a" opacity="0.8" rx="1"/>
  <!-- Building 5 -->
  <rect x="300" y="120" width="45" height="120" fill="#c2410c" opacity="0.55" rx="2"/>
  <rect x="308" y="130" width="10" height="12" fill="#fed7aa" opacity="0.5" rx="1"/>
  <rect x="323" y="130" width="10" height="12" fill="#fde68a" opacity="0.7" rx="1"/>
  <!-- Ground line -->
  <line x1="0" y1="238" x2="360" y2="238" stroke="#7c2d12" stroke-width="2"/>
  <rect x="16" y="16" width="60" height="26" rx="5" fill="#431407"/>
  <text x="46" y="33" font-family="monospace" font-size="11" font-weight="bold" fill="#fdba74" text-anchor="middle">부동산</text>
</svg>
